<svg width="48" height="48" viewBox="0 0 48 48" fill="none" xmlns="http://www.w3.org/2000/svg">
<mask id="mask0_1_192" style="mask-type:alpha" maskUnits="userSpaceOnUse" x="0" y="0" width="48" height="48">
<rect width="48" height="48" fill="#D9D9D9"/>
</mask>
<g mask="url(#mask0_1_192)">
<path d="M22 18V12H16V8H22V2H26V8H32V12H26V18H22ZM11.175 42.825C10.3917 42.0417 10 41.1 10 40C10 38.9 10.3917 37.9583 11.175 37.175C11.9583 36.3917 12.9 36 14 36C15.1 36 16.0417 36.3917 16.825 37.175C17.6083 37.9583 18 38.9 18 40C18 41.1 17.6083 42.0417 16.825 42.825C16.0417 43.6083 15.1 44 14 44C12.9 44 11.9583 43.6083 11.175 42.825ZM31.175 42.825C30.3917 42.0417 30 41.1 30 40C30 38.9 30.3917 37.9583 31.175 37.175C31.9583 36.3917 32.9 36 34 36C35.1 36 36.0417 36.3917 36.825 37.175C37.6083 37.9583 38 38.9 38 40C38 41.1 37.6083 42.0417 36.825 42.825C36.0417 43.6083 35.1 44 34 44C32.9 44 31.9583 43.6083 31.175 42.825ZM2 8V4H8.55L17.05 22H31.05L38.85 8H43.4L34.6 23.9C34.2333 24.5667 33.7417 25.0833 33.125 25.45C32.5083 25.8167 31.8333 26 31.1 26H16.2L14 30H38V34H14C12.5 34 11.3583 33.35 10.575 32.05C9.79167 30.75 9.76667 29.4333 10.5 28.1L13.2 23.2L6 8H2Z" fill="#EF352E"/>
</g>
</svg>
