<svg width="48" height="48" viewBox="0 0 48 48" fill="none" xmlns="http://www.w3.org/2000/svg">
<path d="M39.3375 10.035C39.3225 10.0125 39.3075 9.99005 39.2775 9.98251C36.42 8.67005 33.3975 7.73251 30.3 7.20005C30.27 7.19251 30.24 7.20005 30.2175 7.20754C30.195 7.21502 30.1725 7.23754 30.1575 7.26754C29.745 8.01005 29.37 8.78251 29.04 9.56251C25.695 9.05251 22.2975 9.05251 18.96 9.56251C18.6225 8.77502 18.2475 8.01005 17.8275 7.26754C17.8125 7.24502 17.79 7.22251 17.7675 7.20754C17.745 7.19251 17.715 7.19251 17.685 7.19251C14.5875 7.72502 11.565 8.66251 8.7075 9.97502C8.68498 9.98251 8.66247 10.005 8.6475 10.0275C2.93248 18.5625 1.36498 26.895 2.12998 35.115C2.12998 35.1375 2.13748 35.1525 2.14498 35.175C2.15248 35.1975 2.16748 35.205 2.18248 35.2201C5.51247 37.6875 9.23247 39.57 13.1925 40.785C13.2225 40.7925 13.2525 40.7925 13.275 40.785C13.2975 40.7775 13.3275 40.755 13.3425 40.7325C14.19 39.5775 14.9475 38.3475 15.5925 37.0725C15.6 37.0575 15.6075 37.035 15.6075 37.0125C15.6075 36.99 15.6075 36.975 15.6 36.9525C15.5925 36.93 15.585 36.915 15.57 36.9075C15.555 36.9 15.54 36.885 15.5175 36.8775C14.3325 36.42 13.1775 35.8725 12.075 35.235C12.0525 35.22 12.0375 35.205 12.0225 35.19C12.0075 35.175 12 35.145 12 35.1225C12 35.1001 12 35.0775 12.015 35.055C12.03 35.0325 12.0375 35.0175 12.06 35.0025C12.2925 34.83 12.525 34.6501 12.7425 34.4701C12.765 34.455 12.7875 34.44 12.81 34.44C12.8325 34.44 12.8625 34.4401 12.885 34.4475C20.1 37.7401 27.915 37.7401 35.0475 34.4475C35.07 34.4401 35.1 34.4325 35.1225 34.4325C35.145 34.4325 35.175 34.4475 35.19 34.4625C35.4075 34.6425 35.64 34.83 35.8725 35.0025C35.8875 35.0175 35.9025 35.0325 35.9175 35.055C35.9325 35.0775 35.9325 35.1001 35.9325 35.1225C35.9325 35.145 35.925 35.1675 35.91 35.19C35.895 35.2125 35.88 35.2275 35.865 35.235C34.7625 35.88 33.615 36.4275 32.4225 36.8701C32.4075 36.8775 32.385 36.885 32.37 36.9C32.355 36.915 32.3475 36.93 32.34 36.9525C32.3325 36.975 32.3325 36.99 32.3325 37.0125C32.3325 37.035 32.34 37.0501 32.3475 37.0725C33.0075 38.3475 33.7575 39.5701 34.5975 40.7325C34.6125 40.755 34.6425 40.7775 34.665 40.785C34.6875 40.7925 34.725 40.7925 34.7475 40.785C38.715 39.57 42.4425 37.6875 45.78 35.2201C45.795 35.205 45.81 35.19 45.8175 35.175C45.825 35.16 45.8325 35.1375 45.8325 35.115C46.755 25.605 44.295 17.3475 39.315 10.0275L39.3375 10.035ZM16.6875 30.1125C14.5125 30.1125 12.7275 28.1175 12.7275 25.6725C12.7275 23.2275 14.4825 21.2325 16.6875 21.2325C18.915 21.2325 20.685 23.2425 20.6475 25.6725C20.6475 28.125 18.8925 30.1125 16.6875 30.1125ZM31.3425 30.1125C29.1675 30.1125 27.3825 28.1175 27.3825 25.6725C27.3825 23.2275 29.1375 21.2325 31.3425 21.2325C33.57 21.2325 35.34 23.2425 35.3025 25.6725C35.3025 28.125 33.5625 30.1125 31.3425 30.1125Z" fill="#EF352E"/>
</svg>
