<svg width="48" height="48" viewBox="0 0 48 48" fill="none" xmlns="http://www.w3.org/2000/svg">
<g clip-path="url(#clip0_1_147)">
<mask id="mask0_1_147" style="mask-type:luminance" maskUnits="userSpaceOnUse" x="0" y="0" width="48" height="48">
<path d="M48 0H0V48H48V0Z" fill="white"/>
</mask>
<g mask="url(#mask0_1_147)">
<mask id="mask1_1_147" style="mask-type:alpha" maskUnits="userSpaceOnUse" x="0" y="0" width="48" height="48">
<path d="M48 0H0V48H48V0Z" fill="#001629"/>
</mask>
<g mask="url(#mask1_1_147)">
<path d="M23.9714 42.9109L21.4414 40.6369C17.8591 37.3429 14.9019 34.5031 12.5699 32.1174C10.2376 29.7318 8.37873 27.5951 6.99339 25.7074C5.60773 23.8198 4.63989 22.1024 4.08989 20.5554C3.53989 19.0084 3.26489 17.4389 3.26489 15.8469C3.26489 12.6333 4.34073 9.94961 6.49239 7.79594C8.64406 5.64194 11.3037 4.56494 14.4714 4.56494C16.3581 4.56494 18.1037 4.98677 19.7084 5.83044C21.3127 6.67377 22.7337 7.90778 23.9714 9.53244C25.4094 7.80778 26.9026 6.54877 28.4509 5.75544C29.9993 4.96177 31.6727 4.56494 33.4714 4.56494C36.6714 4.56494 39.3486 5.64211 41.5029 7.79644C43.6576 9.95111 44.7349 12.6356 44.7349 15.8499C44.7349 17.4393 44.4599 19.0029 43.9099 20.5409C43.3599 22.0789 42.3921 23.7918 41.0064 25.6794C39.6211 27.5671 37.7588 29.7094 35.4194 32.1064C33.0804 34.5038 30.1174 37.3473 26.5304 40.6369L23.9714 42.9109ZM23.9574 37.6889C27.3227 34.5893 30.0856 31.9451 32.2459 29.7564C34.4066 27.5681 36.1191 25.6548 37.3834 24.0164C38.6481 22.3778 39.5292 20.9189 40.0269 19.6399C40.5249 18.3609 40.7739 17.1003 40.7739 15.8579C40.7739 13.7279 40.0941 11.9734 38.7344 10.5944C37.3747 9.21544 35.6287 8.52594 33.4964 8.52594C31.8264 8.52594 30.2747 9.05561 28.8414 10.1149C27.4081 11.1746 26.2414 12.6449 25.3414 14.5259H22.5804C21.7184 12.6593 20.5629 11.1926 19.1139 10.1259C17.6649 9.05928 16.1152 8.52594 14.4649 8.52594C12.3586 8.52594 10.6302 9.20944 9.27989 10.5764C7.92956 11.9431 7.25439 13.7063 7.25439 15.8659C7.25439 17.1379 7.5074 18.4236 8.01339 19.7229C8.51939 21.0223 9.40523 22.4983 10.6709 24.1509C11.9366 25.8039 13.6459 27.7163 15.7989 29.8879C17.9519 32.0596 20.6714 34.6599 23.9574 37.6889Z" fill="#EF352E"/>
</g>
</g>
</g>
<defs>
<clipPath id="clip0_1_147">
<rect width="48" height="48" fill="white"/>
</clipPath>
</defs>
</svg>
