<svg width="48" height="48" viewBox="0 0 48 48" fill="none" xmlns="http://www.w3.org/2000/svg">
<g clip-path="url(#clip0_1_137)">
<mask id="mask0_1_137" style="mask-type:luminance" maskUnits="userSpaceOnUse" x="0" y="0" width="48" height="48">
<path d="M48 0H0V48H48V0Z" fill="white"/>
</mask>
<g mask="url(#mask0_1_137)">
<mask id="mask1_1_137" style="mask-type:alpha" maskUnits="userSpaceOnUse" x="0" y="0" width="48" height="48">
<path d="M48 0H0V48H48V0Z" fill="#001629"/>
</mask>
<g mask="url(#mask1_1_137)">
<path d="M23.9714 42.9109L21.4414 40.6369C17.8514 37.3469 14.8922 34.5081 12.5639 32.1204C10.2356 29.7328 8.37873 27.5951 6.99339 25.7074C5.60773 23.8198 4.63989 22.1024 4.08989 20.5554C3.53989 19.0084 3.26489 17.4399 3.26489 15.8499C3.26489 12.6426 4.33923 9.95994 6.48789 7.80194C8.63656 5.64394 11.2977 4.56494 14.4714 4.56494C16.3527 4.56494 18.0971 4.98677 19.7044 5.83044C21.3114 6.67377 22.7337 7.90778 23.9714 9.53244C25.4094 7.80778 26.9022 6.54877 28.4499 5.75544C29.9976 4.96177 31.6714 4.56494 33.4714 4.56494C36.6644 4.56494 39.3399 5.64394 41.4979 7.80194C43.6559 9.95994 44.7349 12.6426 44.7349 15.8499C44.7349 17.4399 44.4599 19.0038 43.9099 20.5414C43.3599 22.0791 42.3921 23.7918 41.0064 25.6794C39.6211 27.5671 37.7596 29.7094 35.4219 32.1064C33.0839 34.5034 30.1201 37.3469 26.5304 40.6369L23.9714 42.9109Z" fill="#EF352E"/>
</g>
</g>
</g>
<defs>
<clipPath id="clip0_1_137">
<rect width="48" height="48" fill="white"/>
</clipPath>
</defs>
</svg>
