<svg width="48" height="48" viewBox="0 0 48 48" fill="none" xmlns="http://www.w3.org/2000/svg">
<path d="M35.7675 12.0825C32.625 8.93251 28.44 7.2 23.9925 7.2C14.8125 7.2 7.34252 14.67 7.34252 23.85C7.34252 26.7825 8.1075 29.6475 9.56252 32.175L7.20001 40.8L16.0275 38.4825C18.4575 39.81 21.195 40.5075 23.985 40.5075H23.9925C33.165 40.5075 40.8 33.0375 40.8 23.8575C40.8 19.41 38.91 15.2325 35.7675 12.0825ZM23.9925 37.7025C21.5025 37.7025 19.065 37.035 16.9425 35.775L16.44 35.475L11.205 36.8475L12.6 31.74L12.27 31.215C10.8825 29.01 10.155 26.4675 10.155 23.85C10.155 16.2225 16.365 10.0125 24 10.0125C27.6975 10.0125 31.17 11.4525 33.78 14.07C36.39 16.6875 37.995 20.16 37.9875 23.8575C37.9875 31.4925 31.62 37.7025 23.9925 37.7025ZM31.5825 27.3375C31.17 27.1275 29.1225 26.1225 28.74 25.9875C28.3575 25.845 28.08 25.7775 27.8025 26.1975C27.525 26.6175 26.73 27.5475 26.4825 27.8325C26.2425 28.11 25.995 28.1475 25.5825 27.9375C23.1375 26.715 21.5325 25.755 19.92 22.9875C19.4925 22.2525 20.3475 22.305 21.1425 20.715C21.2775 20.4375 21.21 20.1975 21.105 19.9875C21 19.7775 20.1675 17.73 19.8225 16.8975C19.485 16.0875 19.14 16.2 18.885 16.185C18.645 16.17 18.3675 16.17 18.09 16.17C17.8125 16.17 17.3625 16.275 16.98 16.6875C16.5975 17.1075 15.525 18.1125 15.525 20.16C15.525 22.2075 17.0175 24.1875 17.22 24.465C17.43 24.7425 20.1525 28.9425 24.33 30.75C26.97 31.89 28.005 31.9875 29.325 31.7925C30.1275 31.6725 31.785 30.7875 32.13 29.8125C32.475 28.8375 32.475 28.005 32.37 27.8325C32.2725 27.645 31.995 27.54 31.5825 27.3375Z" fill="#EF352E"/>
</svg>
